<mxfile host="app.diagrams.net" modified="2022-08-03T03:47:35.540Z" agent="5.0 (Windows NT 10.0; Win64; x64) AppleWebKit/537.36 (KHTML, like Gecko) Chrome/103.0.0.0 Safari/537.36" etag="Xi4DNbnlZEo-NFNBe2c1" version="20.2.2" type="github" pages="2">
  <diagram id="u2JGVooj85GUmdJrXcnZ" name="Bottom Bucket">
    <mxGraphModel dx="2062" dy="1154" grid="1" gridSize="10" guides="1" tooltips="1" connect="1" arrows="1" fold="1" page="1" pageScale="1" pageWidth="850" pageHeight="1100" math="0" shadow="0">
      <root>
        <mxCell id="0" />
        <mxCell id="1" parent="0" />
        <mxCell id="f5xVuYe9uK0l2XjgxMrE-16" value="" style="verticalLabelPosition=bottom;verticalAlign=top;html=1;shape=mxgraph.basic.orthogonal_triangle;rounded=0;shadow=0;flipH=1;" parent="1" vertex="1">
          <mxGeometry x="270" y="140" width="449" height="230" as="geometry" />
        </mxCell>
        <mxCell id="QOlr3V_T8zt_DQbqpUFj-14" value="" style="shape=parallelogram;perimeter=parallelogramPerimeter;whiteSpace=wrap;html=1;fixedSize=1;shadow=1;rotation=-89;size=10;" parent="1" vertex="1">
          <mxGeometry x="185.36" y="191.56" width="178.15" height="180.26" as="geometry" />
        </mxCell>
        <mxCell id="QOlr3V_T8zt_DQbqpUFj-11" value="" style="shape=parallelogram;perimeter=parallelogramPerimeter;whiteSpace=wrap;html=1;fixedSize=1;shadow=0;rotation=0;size=0;" parent="1" vertex="1">
          <mxGeometry x="83.75" y="640" width="180" height="170" as="geometry" />
        </mxCell>
        <mxCell id="QOlr3V_T8zt_DQbqpUFj-10" value="" style="verticalLabelPosition=bottom;verticalAlign=top;html=1;shape=mxgraph.basic.diag_stripe;dx=10;shadow=1;flipV=1;rotation=-30;" parent="1" vertex="1">
          <mxGeometry x="83.75" y="791.25" width="100" height="60" as="geometry" />
        </mxCell>
        <mxCell id="QOlr3V_T8zt_DQbqpUFj-9" value="" style="verticalLabelPosition=bottom;verticalAlign=top;html=1;shape=mxgraph.basic.diag_stripe;dx=10;rotation=30;shadow=1;" parent="1" vertex="1">
          <mxGeometry x="80" y="600" width="100" height="60" as="geometry" />
        </mxCell>
        <mxCell id="f5xVuYe9uK0l2XjgxMrE-10" value="" style="verticalLabelPosition=bottom;verticalAlign=top;html=1;shape=mxgraph.basic.diag_stripe;dx=10;rounded=0;shadow=1;" parent="1" vertex="1">
          <mxGeometry x="80" y="210" width="100" height="60" as="geometry" />
        </mxCell>
        <mxCell id="f5xVuYe9uK0l2XjgxMrE-13" value="" style="shape=partialRectangle;whiteSpace=wrap;html=1;right=0;top=0;bottom=0;fillColor=none;routingCenterX=-0.5;rounded=0;shadow=0;" parent="1" vertex="1">
          <mxGeometry x="180" y="210" width="120" height="160" as="geometry" />
        </mxCell>
        <mxCell id="f5xVuYe9uK0l2XjgxMrE-18" value="" style="shape=partialRectangle;whiteSpace=wrap;html=1;right=0;top=0;bottom=0;fillColor=none;routingCenterX=-0.5;rounded=0;shadow=0;" parent="1" vertex="1">
          <mxGeometry x="180" y="70" width="120" height="120" as="geometry" />
        </mxCell>
        <mxCell id="f5xVuYe9uK0l2XjgxMrE-20" value="" style="verticalLabelPosition=bottom;verticalAlign=top;html=1;shape=mxgraph.basic.diag_stripe;dx=10;rounded=0;shadow=1;" parent="1" vertex="1">
          <mxGeometry x="80" y="180" width="100" height="60" as="geometry" />
        </mxCell>
        <mxCell id="QOlr3V_T8zt_DQbqpUFj-1" value="Side" style="text;strokeColor=none;fillColor=none;html=1;fontSize=24;fontStyle=1;verticalAlign=middle;align=center;" parent="1" vertex="1">
          <mxGeometry x="730" y="170" width="100" height="40" as="geometry" />
        </mxCell>
        <mxCell id="QOlr3V_T8zt_DQbqpUFj-2" value="" style="rounded=0;whiteSpace=wrap;html=1;" parent="1" vertex="1">
          <mxGeometry x="180" y="570" width="540" height="320" as="geometry" />
        </mxCell>
        <mxCell id="QOlr3V_T8zt_DQbqpUFj-5" value="" style="shape=step;perimeter=stepPerimeter;whiteSpace=wrap;html=1;fixedSize=1;flipH=1;size=0;" parent="1" vertex="1">
          <mxGeometry x="290" y="570" width="430" height="320" as="geometry" />
        </mxCell>
        <mxCell id="QOlr3V_T8zt_DQbqpUFj-3" value="" style="shape=parallelogram;perimeter=parallelogramPerimeter;whiteSpace=wrap;html=1;fixedSize=1;flipH=1;flipV=1;rotation=-90;size=1.25;" parent="1" vertex="1">
          <mxGeometry x="103.13" y="646.88" width="317.5" height="163.75" as="geometry" />
        </mxCell>
        <mxCell id="QOlr3V_T8zt_DQbqpUFj-4" value="" style="shape=singleArrow;direction=south;whiteSpace=wrap;html=1;" parent="1" vertex="1">
          <mxGeometry x="220" y="680" width="60" height="100" as="geometry" />
        </mxCell>
        <mxCell id="QOlr3V_T8zt_DQbqpUFj-7" value="" style="shape=singleArrow;direction=west;whiteSpace=wrap;html=1;rotation=-10;" parent="1" vertex="1">
          <mxGeometry x="490" y="685" width="100" height="60" as="geometry" />
        </mxCell>
        <mxCell id="QOlr3V_T8zt_DQbqpUFj-8" value="" style="ellipse;whiteSpace=wrap;html=1;" parent="1" vertex="1">
          <mxGeometry x="180" y="290" width="120" height="80" as="geometry" />
        </mxCell>
        <mxCell id="f5xVuYe9uK0l2XjgxMrE-7" value="" style="shape=singleArrow;direction=south;whiteSpace=wrap;html=1;rounded=0;" parent="1" vertex="1">
          <mxGeometry x="220" y="225" width="60" height="100" as="geometry" />
        </mxCell>
        <mxCell id="QOlr3V_T8zt_DQbqpUFj-12" value="" style="shape=singleArrow;direction=west;whiteSpace=wrap;html=1;shadow=0;" parent="1" vertex="1">
          <mxGeometry x="60" y="700" width="100" height="60" as="geometry" />
        </mxCell>
        <mxCell id="QOlr3V_T8zt_DQbqpUFj-13" value="Top" style="text;strokeColor=none;fillColor=none;html=1;fontSize=24;fontStyle=1;verticalAlign=middle;align=center;shadow=0;" parent="1" vertex="1">
          <mxGeometry x="730" y="626.25" width="100" height="40" as="geometry" />
        </mxCell>
        <mxCell id="f5xVuYe9uK0l2XjgxMrE-12" value="" style="shape=partialRectangle;whiteSpace=wrap;html=1;top=0;left=0;fillColor=none;rounded=0;shadow=0;" parent="1" vertex="1">
          <mxGeometry x="180" y="61.82" width="539" height="310" as="geometry" />
        </mxCell>
        <mxCell id="QOlr3V_T8zt_DQbqpUFj-15" value="Bottom Bucket" style="text;strokeColor=none;fillColor=none;html=1;fontSize=24;fontStyle=1;verticalAlign=middle;align=center;shadow=1;" parent="1" vertex="1">
          <mxGeometry x="260" width="280" height="70" as="geometry" />
        </mxCell>
        <mxCell id="IujG3R1bnzVYVLpEdApE-1" value="" style="rounded=0;whiteSpace=wrap;html=1;" vertex="1" parent="1">
          <mxGeometry x="180" y="371.82" width="540" height="148.18" as="geometry" />
        </mxCell>
      </root>
    </mxGraphModel>
  </diagram>
  <diagram id="Tg9n7DexKCbusGg9JVvR" name="Side Slide">
    <mxGraphModel dx="2062" dy="2254" grid="1" gridSize="10" guides="1" tooltips="1" connect="1" arrows="1" fold="1" page="1" pageScale="1" pageWidth="850" pageHeight="1100" math="0" shadow="0">
      <root>
        <mxCell id="0" />
        <mxCell id="1" parent="0" />
        <mxCell id="XKqA7-kuqFgGDziZ0PdY-7" value="" style="verticalLabelPosition=bottom;verticalAlign=top;html=1;shape=mxgraph.infographic.shadedTriangle;fillColor=#10739E;strokeColor=none;rotation=-180;flipH=1;" vertex="1" parent="1">
          <mxGeometry x="135.63" y="-960" width="108.75" height="180" as="geometry" />
        </mxCell>
        <mxCell id="BG-bOIxgwAE_as1Ot2Ih-1" value="Side Slide" style="text;strokeColor=none;fillColor=none;html=1;fontSize=24;fontStyle=1;verticalAlign=middle;align=center;shadow=1;" parent="1" vertex="1">
          <mxGeometry x="300" y="-1100" width="240" height="70" as="geometry" />
        </mxCell>
        <mxCell id="XKqA7-kuqFgGDziZ0PdY-5" value="" style="verticalLabelPosition=bottom;verticalAlign=top;html=1;shape=mxgraph.infographic.cylinder;fillColor=#10739E;strokeColor=none;rotation=-90;" vertex="1" parent="1">
          <mxGeometry x="441.25" y="-950" width="60" height="440" as="geometry" />
        </mxCell>
        <mxCell id="XKqA7-kuqFgGDziZ0PdY-6" value="" style="verticalLabelPosition=bottom;verticalAlign=top;html=1;shape=mxgraph.infographic.cylinder;fillColor=#10739E;strokeColor=none;" vertex="1" parent="1">
          <mxGeometry x="160" y="-895" width="60" height="100" as="geometry" />
        </mxCell>
        <mxCell id="XKqA7-kuqFgGDziZ0PdY-4" value="" style="verticalLabelPosition=bottom;verticalAlign=top;html=1;shape=mxgraph.basic.partConcEllipse;fillColor=#10739E;strokeColor=none;startAngle=0.506492516275344;endAngle=0.762705336833058;arcWidth=0.58;" vertex="1" parent="1">
          <mxGeometry x="160" y="-900" width="210" height="200" as="geometry" />
        </mxCell>
        <mxCell id="XKqA7-kuqFgGDziZ0PdY-8" value="Top" style="text;strokeColor=none;fillColor=none;html=1;fontSize=24;fontStyle=1;verticalAlign=middle;align=center;" vertex="1" parent="1">
          <mxGeometry x="370" y="-835" width="100" height="40" as="geometry" />
        </mxCell>
      </root>
    </mxGraphModel>
  </diagram>
</mxfile>
